<svg width="34" height="21" viewBox="0 0 34 21" fill="none" xmlns="http://www.w3.org/2000/svg">
  <path clip-rule="evenodd" d="M14.08 2.701c-.876-1.493-3.065-1.493-3.94 0L2.307 16.058c-.875 1.494.22 3.36 1.97 3.36h25.444c1.75 0 2.845-1.866 1.97-3.36L23.86 2.701c-.876-1.493-3.065-1.493-3.94 0L17 7.683l-2.92-4.982Z" stroke="url(#a)" stroke-width="3"/>
  <path d="M17.338 13.186c0 .381-.13.655-.25.797a.486.486 0 0 1-.088.086.49.49 0 0 1-.089-.086c-.119-.142-.249-.416-.249-.797 0 .017 0 .015.005-.005.013-.057.06-.262.227-.644a7.86 7.86 0 0 1 .106-.23c.037.079.073.155.105.23.168.382.215.587.228.644.005.02.005.022.005.005Zm-.37.9s.003-.002.01-.003l-.01.003Zm.055-.003.01.003s-.004 0-.01-.003Z" stroke="url(#b)" stroke-width="5"/>
  <defs>
    <linearGradient id="a" x1="17" y1="1.581" x2="17" y2="19.419" gradientUnits="userSpaceOnUse">
      <stop stop-color="#5B3962"/>
      <stop offset="1" stop-color="#1CB174"/>
    </linearGradient>
    <linearGradient id="b" x1="17" y1="8.108" x2="17" y2="16.581" gradientUnits="userSpaceOnUse">
      <stop stop-color="#446568"/>
      <stop offset="1" stop-color="#21A672"/>
    </linearGradient>
  </defs>
</svg>
